<svg xmlns="http://www.w3.org/2000/svg" viewBox="0 0 512 512" role="img" aria-label="LINE">
  <rect width="512" height="512" rx="112" fill="#06C755"/>
  <path fill="#fff" d="M256 112c-88.4 0-160 57.8-160 129.2 0 63.9 57.4 117.1 132.9 127.4 5.2 1.1 12.2 3.5 14 8.1 1.6 4.1 1 10.5.5 14.7l-2.3 14c-.7 4.1-3.3 16.1 13.9 8.8 17.3-7.3 93.1-54.8 127.1-93.9 23.4-25.7 33.9-51.8 33.9-79.1C416 169.8 344.4 112 256 112z"/>
  <path fill="#06C755" d="M183 276h-32c-5 0-9-4-9-9v-56c0-5 4-9 9-9s9 4 9 9v47h23c5 0 9 4 9 9s-4 9-9 9zm35-9c0 5-4 9-9 9s-9-4-9-9v-56c0-5 4-9 9-9s9 4 9 9v56zm78 0c0 3.9-2.5 7.4-6.2 8.6-3.8 1.2-7.9-.1-10.2-3.3l-29-39.5V267c0 5-4 9-9 9s-9-4-9-9v-56c0-3.9 2.5-7.4 6.2-8.6 3.8-1.2 7.9.1 10.2 3.3l29 39.5V211c0-5 4-9 9-9s9 4 9 9v56zm55-37c5 0 9 4 9 9s-4 9-9 9h-23v10h23c5 0 9 4 9 9s-4 9-9 9h-32c-5 0-9-4-9-9v-56c0-5 4-9 9-9h32c5 0 9 4 9 9s-4 9-9 9h-23v10h23z"/>
</svg>