<svg xmlns="http://www.w3.org/2000/svg" viewBox="0 0 240 360">
<defs><filter id="s"><feDropShadow dx="0" dy="10" stdDeviation="8" flood-opacity=".25"/></filter></defs>
<g filter="url(#s)">
<circle cx="120" cy="70" r="55" fill="#ffd1a3" stroke="#5f2f0b" stroke-width="5"/>
<path d="M68 55c15-45 87-60 112-10 10 20 0 36-8 50-10-38-60-24-104-40z" fill="#3b2314"/>
<circle cx="98" cy="76" r="8" fill="#111"/><circle cx="145" cy="76" r="8" fill="#111"/>
<path d="M98 103c18 17 40 17 57 0" stroke="#7a2e16" stroke-width="5" fill="none" stroke-linecap="round"/>
<path d="M67 145h106c22 0 38 18 38 40v72c0 32-22 50-55 50H84c-33 0-55-18-55-50v-72c0-22 16-40 38-40z" fill="#5b21b6"/>
<text x="120" y="235" text-anchor="middle" font-size="50" font-weight="900" font-family="Arial" fill="#fff">BC</text>
<path d="M35 170c-45-8-58-55-33-71 12-8 24 2 19 16-5 13 4 22 28 29z" fill="#ffd1a3" stroke="#5f2f0b" stroke-width="5"/>
<path d="M205 168c45-12 56-55 30-70-12-7-24 3-18 17 6 13-2 22-26 30z" fill="#ffd1a3" stroke="#5f2f0b" stroke-width="5"/>
<rect x="55" y="302" width="40" height="46" rx="14" fill="#202020"/><rect x="145" y="302" width="40" height="46" rx="14" fill="#202020"/>
<ellipse cx="70" cy="350" rx="38" ry="12" fill="#fff" stroke="#333" stroke-width="4"/><ellipse cx="162" cy="350" rx="38" ry="12" fill="#fff" stroke="#333" stroke-width="4"/>
</g>
</svg>
