<svg xmlns="http://www.w3.org/2000/svg" viewBox="0 0 96 96">
  <defs>
    <linearGradient id="g" x1="0" x2="1" y1="0" y2="1">
      <stop stop-color="#7b2cff"/>
      <stop offset="1" stop-color="#3d147a"/>
    </linearGradient>
  </defs>
  <rect width="96" height="96" rx="24" fill="url(#g)"/>
  <path d="M59 50c4 4 9 4 13 1 5-4 6-11 2-16-4-5-11-6-16-2l-8 7-8-7c-5-4-12-3-16 2-4 5-3 12 2 16 4 3 9 3 13-1l9-8 9 8Z" fill="#fff"/>
  <path d="M50 40l15 14-8 6-7-7-7 7-8-6 15-14Z" fill="#f7b51d"/>
  <text x="48" y="72" text-anchor="middle" font-family="Arial, sans-serif" font-size="18" font-weight="800" fill="#fff">BC</text>
</svg>
