<svg xmlns="http://www.w3.org/2000/svg" viewBox="0 0 900 520">
<defs><linearGradient id="g" x1="0" y1="0" x2="0" y2="1"><stop stop-color="#ffe688"/><stop offset="1" stop-color="#c88914"/></linearGradient><filter id="s"><feDropShadow dx="0" dy="8" stdDeviation="6" flood-opacity=".28"/></filter></defs>
<g filter="url(#s)">
<g transform="translate(20,120)">
<path d="M80 190h520v150H80z" fill="#f8ead0" stroke="#a76721" stroke-width="6"/>
<path d="M60 190l110-110 110 110z" fill="#b83719" stroke="#f5c45c" stroke-width="8"/>
<path d="M250 190l110-110 110 110z" fill="#b83719" stroke="#f5c45c" stroke-width="8"/>
<path d="M430 190l105-105 105 105z" fill="#b83719" stroke="#f5c45c" stroke-width="8"/>
<rect x="135" y="235" width="75" height="105" rx="10" fill="#743f18"/>
<rect x="320" y="235" width="75" height="105" rx="10" fill="#743f18"/>
<rect x="500" y="235" width="75" height="105" rx="10" fill="#743f18"/>
<path d="M40 350h620v42H40z" fill="#dfb669"/>
</g>
<g transform="translate(265,15)">
<ellipse cx="160" cy="350" rx="140" ry="32" fill="#b87914"/>
<path d="M72 318c24-52 54-75 88-75s64 23 88 75" fill="url(#g)" stroke="#9b650c" stroke-width="6"/>
<path d="M105 214c0-60 110-60 110 0 0 44-20 68-55 68s-55-24-55-68z" fill="url(#g)" stroke="#9b650c" stroke-width="6"/>
<circle cx="160" cy="144" r="54" fill="url(#g)" stroke="#9b650c" stroke-width="6"/>
<path d="M160 15c35 62 38 99 0 124-38-25-35-62 0-124z" fill="url(#g)" stroke="#9b650c" stroke-width="5"/>
<path d="M105 214c-70 42-90 82-48 116 50 18 80-16 96-70" fill="url(#g)" stroke="#9b650c" stroke-width="6"/>
<path d="M215 214c70 42 90 82 48 116-50 18-80-16-96-70" fill="url(#g)" stroke="#9b650c" stroke-width="6"/>
<path d="M85 355h150l35 65H50z" fill="#dca326" stroke="#9b650c" stroke-width="6"/>
</g>
<g transform="translate(14,320)">
<rect x="0" y="65" width="760" height="55" fill="#eee" stroke="#c8c8c8" stroke-width="5"/>
<rect x="25" y="0" width="70" height="80" rx="10" fill="#eeeadf" stroke="#bca56e" stroke-width="5"/>
<rect x="120" y="0" width="70" height="80" rx="10" fill="#eeeadf" stroke="#bca56e" stroke-width="5"/>
<rect x="620" y="0" width="70" height="80" rx="10" fill="#eeeadf" stroke="#bca56e" stroke-width="5"/>
<rect x="710" y="0" width="70" height="80" rx="10" fill="#eeeadf" stroke="#bca56e" stroke-width="5"/>
</g>
</g>
</svg>
